STARTFONT 2.1
FONT -HP-Pilgi-Bold-R-Normal--24-240-75-75-C-120-KSC5636.1989-0
SIZE 24 75 75
FONTBOUNDINGBOX 12 24 0 -2

STARTPROPERTIES 23
FONTNAME_REGISTRY ""
FOUNDRY "HP"
FAMILY_NAME "Pilgi"
WEIGHT_NAME "Bold"
SLANT "R"
SETWIDTH_NAME "Normal"
ADD_STYLE_NAME ""
PIXEL_SIZE 24
POINT_SIZE 240
RESOLUTION_X 75
RESOLUTION_Y 75
SPACING "C"
AVERAGE_WIDTH 120
CHARSET_REGISTRY "KSC5636.1989"
CHARSET_ENCODING "0"
COPYRIGHT "Copyright (c) 1994 Samsung Hewlett-Packard Company."
WEIGHT 158
X_HEIGHT 22
QUAD_WIDTH 12
_HP_ASXVERSION "@(#) ASX 3.00 $Revision: 13.9 $ pilB24a"
DEFAULT_CHAR 32
FONT_DESCENT 2
FONT_ASCENT 22
ENDPROPERTIES

CHARS 256

STARTCHAR CODE000
ENCODING 0
SWIDTH 451 0
DWIDTH 12 0
BBX 12 24 0 -2
BITMAP
0000
0000
0000
0000
0000
0000
0000
0000
0000
0000
0000
0000
0000
0000
0000
0000
0000
0000
0000
0000
0000
0000
0000
0000
ENDCHAR

STARTCHAR CODE001
ENCODING 1
SWIDTH 451 0
DWIDTH 12 0
BBX 12 24 0 -2
BITMAP
0000
0F80
1FC0
38E0
7070
6DB0
DDF0
DDD0
DDD0
C010
C010
C010
D8D0
D8F0
7FB0
6FF0
3060
1FC0
0F80
0000
0000
0000
0000
0000
ENDCHAR

STARTCHAR CODE002
ENCODING 2
SWIDTH 451 0
DWIDTH 12 0
BBX 12 24 0 -2
BITMAP
0000
0F80
1FC0
3FE0
7FF0
7FF0
F770
F770
FFF0
FFF0
FFF0
FFF0
FFF0
FFF0
6F70
7FF0
38E0
1FC0
0F80
0000
0000
0000
0000
0000
ENDCHAR

STARTCHAR CODE003
ENCODING 3
SWIDTH 451 0
DWIDTH 12 0
BBX 12 24 0 -2
BITMAP
0000
3DE0
7FF0
FFF0
FFF0
FFF0
FFF0
FFF0
FFF0
FFF0
FFF0
7FF0
7FF0
3FE0
3FE0
1FC0
1FC0
0F80
0F80
0700
0700
0000
0000
0000
ENDCHAR

STARTCHAR CODE004
ENCODING 4
SWIDTH 451 0
DWIDTH 12 0
BBX 12 24 0 -2
BITMAP
0000
0300
0300
0780
0780
0FC0
0FC0
1FE0
1FE0
3FF0
3FF0
3FF0
3FF0
1FE0
1FE0
0FC0
0FC0
0780
0780
0300
0300
0000
0000
0000
ENDCHAR

STARTCHAR CODE005
ENCODING 5
SWIDTH 451 0
DWIDTH 12 0
BBX 12 24 0 -2
BITMAP
0000
0700
0F80
1FC0
1FC0
1FC0
1FC0
1FC0
2FA0
7FF0
FFF0
FFF0
FFF0
FFF0
FFF0
FFF0
7FF0
36E0
0700
0F80
1FC0
1FC0
0000
0000
ENDCHAR

STARTCHAR CODE006
ENCODING 6
SWIDTH 451 0
DWIDTH 12 0
BBX 12 24 0 -2
BITMAP
0000
0700
0700
0F80
0F80
1FC0
1FC0
3FE0
3FE0
7FF0
7FF0
FFF0
FFF0
FFF0
FFF0
FFF0
7FF0
36E0
0700
0F80
1FC0
1FC0
0000
0000
ENDCHAR

STARTCHAR CODE007
ENCODING 7
SWIDTH 451 0
DWIDTH 12 0
BBX 12 24 0 -2
BITMAP
0000
0000
0000
0000
0000
0000
0000
0700
1FC0
1FC0
3FE0
3FE0
3FE0
1FC0
1FC0
0700
0000
0000
0000
0000
0000
0000
0000
0000
ENDCHAR

STARTCHAR CODE008
ENCODING 8
SWIDTH 451 0
DWIDTH 12 0
BBX 12 24 0 -2
BITMAP
0000
0000
FFF0
FFF0
FFF0
FFF0
FFF0
FFF0
FDF0
F070
F070
E030
F070
F070
FDF0
FFF0
FFF0
FFF0
FFF0
FFF0
FFF0
0000
0000
0000
ENDCHAR

STARTCHAR CODE009
ENCODING 9
SWIDTH 451 0
DWIDTH 12 0
BBX 12 24 0 -2
BITMAP
0000
0000
0000
0000
0000
0000
0000
0780
0FC0
1DE0
1CE0
1860
1DE0
0FC0
0780
0000
0000
0000
0000
0000
0000
0000
0000
0000
ENDCHAR

STARTCHAR CODE010
ENCODING 10
SWIDTH 451 0
DWIDTH 12 0
BBX 12 24 0 -2
BITMAP
0000
0000
7FF0
7FF0
7FF0
7FF0
7FF0
7FF0
7FF0
7CF0
7B70
77B0
6FB0
77F0
7B70
7CF0
7FF0
7FF0
7FF0
7FF0
7FF0
0000
0000
0000
ENDCHAR

STARTCHAR CODE011
ENCODING 11
SWIDTH 451 0
DWIDTH 12 0
BBX 12 24 0 -2
BITMAP
0000
0000
0000
01F0
01F0
0030
0050
00D0
00D0
01C0
0180
3B80
7F00
E700
C300
C300
E700
7E00
3C00
0000
0000
0000
0000
0000
ENDCHAR

STARTCHAR CODE012
ENCODING 12
SWIDTH 451 0
DWIDTH 12 0
BBX 12 24 0 -2
BITMAP
0000
0780
0FC0
1CE0
1860
1860
1CE0
0FC0
0780
0300
0300
0300
7FF0
7FF0
0300
0300
0300
0300
0300
0300
0300
0300
0000
0000
ENDCHAR

STARTCHAR CODE013
ENCODING 13
SWIDTH 451 0
DWIDTH 12 0
BBX 12 24 0 -2
BITMAP
0000
0C00
0E00
0F00
0F80
0FC0
0BE0
0DF0
0CF0
0C70
0C30
0C30
0C30
0C70
0CF0
0CC0
0C00
3C00
7C00
7C00
7800
7000
0000
0000
ENDCHAR

STARTCHAR CODE014
ENCODING 14
SWIDTH 451 0
DWIDTH 12 0
BBX 12 24 0 -2
BITMAP
0000
0030
00F0
07F0
1FF0
1FD0
1E70
1BF0
1FD0
1F10
1C10
1810
1810
1810
1870
18F0
18F0
78F0
F8E0
F800
F000
E000
0000
0000
ENDCHAR

STARTCHAR CODE015
ENCODING 15
SWIDTH 451 0
DWIDTH 12 0
BBX 12 24 0 -2
BITMAP
0000
0300
0300
6310
6FB0
3FF0
1860
3870
3030
3030
7030
7030
7030
3030
3030
3870
1860
3FF0
6FB0
6310
0300
0300
0000
0000
ENDCHAR

STARTCHAR CODE016
ENCODING 16
SWIDTH 451 0
DWIDTH 12 0
BBX 12 24 0 -2
BITMAP
0000
C000
E000
F000
F800
FC00
FE00
FF00
FF80
FFC0
FFE0
FFF0
FFF0
FFE0
FFC0
FF80
FF00
FE00
FC00
F800
F000
E000
C000
0000
ENDCHAR

STARTCHAR CODE017
ENCODING 17
SWIDTH 451 0
DWIDTH 12 0
BBX 12 24 0 -2
BITMAP
0000
0010
0030
0070
00F0
01F0
03F0
07F0
0FF0
1FF0
3FF0
7FF0
7FF0
3FF0
1FF0
0FF0
07F0
03F0
01F0
00F0
0070
0030
0010
0000
ENDCHAR

STARTCHAR CODE018
ENCODING 18
SWIDTH 451 0
DWIDTH 12 0
BBX 12 24 0 -2
BITMAP
0000
0600
0F00
1F80
3FC0
36C0
0600
0600
0600
0600
0600
0600
0600
0600
0600
0600
0600
36C0
3FC0
1F80
0F00
0600
0000
0000
ENDCHAR

STARTCHAR CODE019
ENCODING 19
SWIDTH 451 0
DWIDTH 12 0
BBX 12 24 0 -2
BITMAP
0000
0000
1DC0
1DC0
1DC0
1DC0
1DC0
1DC0
1DC0
1DC0
1DC0
1DC0
1DC0
0000
0000
0000
1DC0
1DC0
1DC0
0000
0000
0000
0000
0000
ENDCHAR

STARTCHAR CODE020
ENCODING 20
SWIDTH 451 0
DWIDTH 12 0
BBX 12 24 0 -2
BITMAP
0000
3FF0
7FF0
E330
C330
C330
C330
E330
7B30
3F30
0F30
0330
0330
0330
0330
0330
0330
0330
0330
0330
0330
0330
0000
0000
ENDCHAR

STARTCHAR CODE021
ENCODING 21
SWIDTH 451 0
DWIDTH 12 0
BBX 12 24 0 -2
BITMAP
0000
0000
1FB0
3FF0
70F0
6070
6F30
7F80
39C0
3EC0
2EC0
37C0
1BE0
0EF0
6070
6030
7030
7870
7FE0
5FC0
0000
0000
0000
0000
ENDCHAR

STARTCHAR CODE022
ENCODING 22
SWIDTH 451 0
DWIDTH 12 0
BBX 12 24 0 -2
BITMAP
0000
0000
0000
0000
0000
0000
FFF0
FFF0
FFF0
FFF0
FFF0
FFF0
FFF0
FFF0
FFF0
FFF0
FFF0
0000
0000
0000
0000
0000
0000
0000
ENDCHAR

STARTCHAR CODE023
ENCODING 23
SWIDTH 451 0
DWIDTH 12 0
BBX 12 24 0 -2
BITMAP
0600
0F00
1F80
3FC0
36C0
0600
0600
0600
0600
0600
0600
0600
0600
0600
0600
0600
36C0
3FC0
1F80
0F00
0600
79F0
7FF0
0000
ENDCHAR

STARTCHAR CODE024
ENCODING 24
SWIDTH 451 0
DWIDTH 12 0
BBX 12 24 0 -2
BITMAP
0000
0300
0780
0FC0
1FE0
1B60
0300
0300
0300
0300
0300
0300
0300
0300
0300
0300
0300
0300
0300
0300
0300
0300
0000
0000
ENDCHAR

STARTCHAR CODE025
ENCODING 25
SWIDTH 451 0
DWIDTH 12 0
BBX 12 24 0 -2
BITMAP
0000
0300
0300
0300
0300
0300
0300
0300
0300
0300
0300
0300
0300
0300
0300
0300
0300
1B60
1FE0
0FC0
0780
0300
0000
0000
ENDCHAR

STARTCHAR CODE026
ENCODING 26
SWIDTH 451 0
DWIDTH 12 0
BBX 12 24 0 -2
BITMAP
0000
0000
0000
0000
0000
0000
0000
0180
01C0
00E0
7FF0
7FF0
00E0
01C0
0180
0000
0000
0000
0000
0000
0000
0000
0000
0000
ENDCHAR

STARTCHAR CODE027
ENCODING 27
SWIDTH 451 0
DWIDTH 12 0
BBX 12 24 0 -2
BITMAP
0000
0000
0000
0000
0000
0000
0000
0C00
1C00
3800
7FF0
7FF0
3800
1C00
0C00
0000
0000
0000
0000
0000
0000
0000
0000
0000
ENDCHAR

STARTCHAR CODE028
ENCODING 28
SWIDTH 451 0
DWIDTH 12 0
BBX 12 24 0 -2
BITMAP
0000
0000
0000
0000
0000
6000
6000
6000
6000
6000
6000
6000
6000
6000
6000
6000
7FF0
7FF0
0000
0000
0000
0000
0000
0000
ENDCHAR

STARTCHAR CODE029
ENCODING 29
SWIDTH 451 0
DWIDTH 12 0
BBX 12 24 0 -2
BITMAP
0000
0000
0000
0000
0000
0000
0000
0000
18C0
38E0
7070
FFF0
FFF0
7070
38E0
18C0
0000
0000
0000
0000
0000
0000
0000
0000
ENDCHAR

STARTCHAR CODE030
ENCODING 30
SWIDTH 451 0
DWIDTH 12 0
BBX 12 24 0 -2
BITMAP
0000
0000
0000
0300
0300
0780
0780
0780
0FC0
0FC0
0FC0
1FE0
1FE0
1FE0
3FF0
3FF0
3FF0
7FF0
7FF0
0000
0000
0000
0000
0000
ENDCHAR

STARTCHAR CODE031
ENCODING 31
SWIDTH 451 0
DWIDTH 12 0
BBX 12 24 0 -2
BITMAP
0000
0000
0000
7FF0
7FF0
3FF0
3FF0
3FF0
1FE0
1FE0
1FE0
0FC0
0FC0
0FC0
0780
0780
0780
0300
0300
0000
0000
0000
0000
0000
ENDCHAR

STARTCHAR CODE032
ENCODING 32
SWIDTH 451 0
DWIDTH 12 0
BBX 12 24 0 -2
BITMAP
0000
0000
0000
0000
0000
0000
0000
0000
0000
0000
0000
0000
0000
0000
0000
0000
0000
0000
0000
0000
0000
0000
0000
0000
ENDCHAR

STARTCHAR CODE033
ENCODING 33
SWIDTH 451 0
DWIDTH 12 0
BBX 12 24 0 -2
BITMAP
0000
0000
0000
00C0
00C0
01C0
0180
0180
0380
0300
0300
0700
0600
0600
0E00
0C00
0C00
0000
3800
3800
3800
0000
0000
0000
ENDCHAR

STARTCHAR CODE034
ENCODING 34
SWIDTH 451 0
DWIDTH 12 0
BBX 12 24 0 -2
BITMAP
0000
0000
0DC0
0DC0
0DC0
1F80
1B00
0000
0000
0000
0000
0000
0000
0000
0000
0000
0000
0000
0000
0000
0000
0000
0000
0000
ENDCHAR

STARTCHAR CODE035
ENCODING 35
SWIDTH 451 0
DWIDTH 12 0
BBX 12 24 0 -2
BITMAP
0000
0000
0000
0000
0000
0000
02C0
02C0
02C0
02C0
03F0
7FF0
7F80
05F0
7F80
0580
0F80
0B00
0B00
0B00
0000
0000
0000
0000
ENDCHAR

STARTCHAR CODE036
ENCODING 36
SWIDTH 451 0
DWIDTH 12 0
BBX 12 24 0 -2
BITMAP
0000
0000
0000
0000
0060
0060
07E0
0FF0
1CB0
19F0
1D60
0FC0
0700
0380
35C0
7EC0
6CC0
7DC0
3B80
1F00
3000
3000
0000
0000
ENDCHAR

STARTCHAR CODE037
ENCODING 37
SWIDTH 451 0
DWIDTH 12 0
BBX 12 24 0 -2
BITMAP
0000
0000
0000
0000
0060
1860
3CE0
6CC0
6DC0
6D80
7F80
5B60
37F0
06B0
0DB0
0DB0
1DB0
19F0
3960
30C0
3000
0000
0000
0000
ENDCHAR

STARTCHAR CODE038
ENCODING 38
SWIDTH 451 0
DWIDTH 12 0
BBX 12 24 0 -2
BITMAP
0000
0000
0000
1E00
3F00
7300
6300
6300
6700
6E00
3DF0
3BF0
7CC0
EEC0
C6C0
C3C0
C180
E7E0
7F70
3C30
0000
0000
0000
0000
ENDCHAR

STARTCHAR CODE039
ENCODING 39
SWIDTH 451 0
DWIDTH 12 0
BBX 12 24 0 -2
BITMAP
0000
0380
0380
0380
0700
0600
0000
0000
0000
0000
0000
0000
0000
0000
0000
0000
0000
0000
0000
0000
0000
0000
0000
0000
ENDCHAR

STARTCHAR CODE040
ENCODING 40
SWIDTH 451 0
DWIDTH 12 0
BBX 12 24 0 -2
BITMAP
0000
0060
00E0
00C0
01C0
0180
0380
0300
0700
0600
0600
0600
0E00
0C00
0C00
0C00
0C00
0C00
0C00
0E00
0600
0700
0300
0000
ENDCHAR

STARTCHAR CODE041
ENCODING 41
SWIDTH 451 0
DWIDTH 12 0
BBX 12 24 0 -2
BITMAP
0C00
0E00
0600
0700
0300
0300
0300
0300
0300
0300
0300
0700
0600
0600
0600
0E00
0C00
1C00
1800
3800
3000
7000
6000
0000
ENDCHAR

STARTCHAR CODE042
ENCODING 42
SWIDTH 451 0
DWIDTH 12 0
BBX 12 24 0 -2
BITMAP
0000
0000
0000
0000
0000
0000
0000
0600
36C0
37C0
1D80
0F00
1F80
35C0
36C0
0600
0000
0000
0000
0000
0000
0000
0000
0000
ENDCHAR

STARTCHAR CODE043
ENCODING 43
SWIDTH 451 0
DWIDTH 12 0
BBX 12 24 0 -2
BITMAP
0000
0000
0000
0000
0000
0000
0000
0180
0180
0380
0300
0FF0
3FF0
3B00
0300
0300
0300
0000
0000
0000
0000
0000
0000
0000
ENDCHAR

STARTCHAR CODE044
ENCODING 44
SWIDTH 451 0
DWIDTH 12 0
BBX 12 24 0 -2
BITMAP
0000
0000
0000
0000
0000
0000
0000
0000
0000
0000
0000
0000
0000
0000
0000
0000
0000
0000
1C00
1C00
1C00
3800
3000
0000
ENDCHAR

STARTCHAR CODE045
ENCODING 45
SWIDTH 451 0
DWIDTH 12 0
BBX 12 24 0 -2
BITMAP
0000
0000
0000
0000
0000
0000
0000
0000
0000
0000
3FE0
3FE0
0000
0000
0000
0000
0000
0000
0000
0000
0000
0000
0000
0000
ENDCHAR

STARTCHAR CODE046
ENCODING 46
SWIDTH 451 0
DWIDTH 12 0
BBX 12 24 0 -2
BITMAP
0000
0000
0000
0000
0000
0000
0000
0000
0000
0000
0000
0000
0000
0000
0000
0000
0000
0000
3800
3800
3800
0000
0000
0000
ENDCHAR

STARTCHAR CODE047
ENCODING 47
SWIDTH 451 0
DWIDTH 12 0
BBX 12 24 0 -2
BITMAP
0000
0000
0060
0060
00E0
00E0
01C0
01C0
0380
0380
0700
0700
0E00
0E00
1C00
1C00
3800
3800
3000
3000
0000
0000
0000
0000
ENDCHAR

STARTCHAR CODE048
ENCODING 48
SWIDTH 451 0
DWIDTH 12 0
BBX 12 24 0 -2
BITMAP
0000
0000
0000
0000
0000
0000
0700
0F80
0DC0
1CC0
18C0
18C0
39C0
3180
3180
3380
3300
3F00
1E00
0000
0000
0000
0000
0000
ENDCHAR

STARTCHAR CODE049
ENCODING 49
SWIDTH 451 0
DWIDTH 12 0
BBX 12 24 0 -2
BITMAP
0000
0000
0000
0000
0000
0000
0180
0380
0F80
0D80
0380
0300
0300
0300
0700
0600
0600
0600
0600
0000
0000
0000
0000
0000
ENDCHAR

STARTCHAR CODE050
ENCODING 50
SWIDTH 451 0
DWIDTH 12 0
BBX 12 24 0 -2
BITMAP
0000
0000
0000
0000
0000
0000
0780
0FC0
1CC0
19C0
0180
0380
0700
0E00
1C00
1800
3FC0
37C0
3C00
0000
0000
0000
0000
0000
ENDCHAR

STARTCHAR CODE051
ENCODING 51
SWIDTH 451 0
DWIDTH 12 0
BBX 12 24 0 -2
BITMAP
0000
0000
0000
0000
0000
0000
0F00
1F80
1980
0380
0780
0F00
0DC0
00C0
00C0
30C0
31C0
3F80
1F00
0000
0000
0000
0000
0000
ENDCHAR

STARTCHAR CODE052
ENCODING 52
SWIDTH 451 0
DWIDTH 12 0
BBX 12 24 0 -2
BITMAP
0000
0000
0000
0000
0000
0000
00C0
01C0
03C0
06C0
07C0
0D80
1DE0
3BE0
3F80
0300
0300
0300
0300
0000
0000
0000
0000
0000
ENDCHAR

STARTCHAR CODE053
ENCODING 53
SWIDTH 451 0
DWIDTH 12 0
BBX 12 24 0 -2
BITMAP
0000
0000
0000
0000
0000
0000
0FC0
0FC0
0C00
1C00
1B00
1780
1DC0
00C0
00C0
30C0
39C0
1F80
0F00
0000
0000
0000
0000
0000
ENDCHAR

STARTCHAR CODE054
ENCODING 54
SWIDTH 451 0
DWIDTH 12 0
BBX 12 24 0 -2
BITMAP
0000
0000
0000
0000
0000
0000
0180
0380
0700
0E00
1C00
1B00
3780
3DC0
30C0
30C0
39C0
1F80
0F00
0000
0000
0000
0000
0000
ENDCHAR

STARTCHAR CODE055
ENCODING 55
SWIDTH 451 0
DWIDTH 12 0
BBX 12 24 0 -2
BITMAP
0000
0000
0000
0000
0000
0000
1FE0
1FE0
0060
00C0
01C0
0180
0380
0300
0700
0600
0E00
0C00
0C00
0000
0000
0000
0000
0000
ENDCHAR

STARTCHAR CODE056
ENCODING 56
SWIDTH 451 0
DWIDTH 12 0
BBX 12 24 0 -2
BITMAP
0000
0000
0000
0000
0000
0000
0700
0F80
1DC0
18C0
1DC0
0F80
0700
1DC0
38C0
30C0
39C0
1F80
0F00
0000
0000
0000
0000
0000
ENDCHAR

STARTCHAR CODE057
ENCODING 57
SWIDTH 451 0
DWIDTH 12 0
BBX 12 24 0 -2
BITMAP
0000
0000
0000
0000
0000
0000
0F00
1F80
39C0
30C0
30C0
39C0
1FC0
0EC0
0180
0380
0300
0700
0600
0000
0000
0000
0000
0000
ENDCHAR

STARTCHAR CODE058
ENCODING 58
SWIDTH 451 0
DWIDTH 12 0
BBX 12 24 0 -2
BITMAP
0000
0000
0000
0000
0000
0000
0000
0000
0700
0700
0700
0000
0000
0000
0E00
0E00
0E00
0000
0000
0000
0000
0000
0000
0000
ENDCHAR

STARTCHAR CODE059
ENCODING 59
SWIDTH 451 0
DWIDTH 12 0
BBX 12 24 0 -2
BITMAP
0000
0000
0000
0000
0000
0000
0000
0000
0700
0700
0700
0000
0000
0000
0700
0700
0700
0E00
0C00
0000
0000
0000
0000
0000
ENDCHAR

STARTCHAR CODE060
ENCODING 60
SWIDTH 451 0
DWIDTH 12 0
BBX 12 24 0 -2
BITMAP
0000
0000
0000
0000
0000
00C0
01C0
0380
0700
0E00
1C00
3800
3000
3800
1800
1800
1C00
0C00
0C00
0E00
0600
0600
0000
0000
ENDCHAR

STARTCHAR CODE061
ENCODING 61
SWIDTH 451 0
DWIDTH 12 0
BBX 12 24 0 -2
BITMAP
0000
0000
0000
0000
0000
0000
0000
0000
0000
1FC0
7FF0
7070
0F80
7FF0
7070
0000
0000
0000
0000
0000
0000
0000
0000
0000
ENDCHAR

STARTCHAR CODE062
ENCODING 62
SWIDTH 451 0
DWIDTH 12 0
BBX 12 24 0 -2
BITMAP
0000
0000
0000
0000
0000
0600
0600
0700
0300
0300
0380
0180
0180
01C0
00C0
01C0
0380
0700
0E00
1C00
3800
3000
0000
0000
ENDCHAR

STARTCHAR CODE063
ENCODING 63
SWIDTH 451 0
DWIDTH 12 0
BBX 12 24 0 -2
BITMAP
0000
0000
0780
0FC0
1CE0
3860
3060
30E0
01C0
0380
0700
0600
0E00
0C00
0C00
0C00
0000
1C00
1C00
1C00
0000
0000
0000
0000
ENDCHAR

STARTCHAR CODE064
ENCODING 64
SWIDTH 451 0
DWIDTH 12 0
BBX 12 24 0 -2
BITMAP
0000
0000
0000
0FC0
1FE0
3870
37B0
7FB0
6CB0
7DB0
59B0
59B0
5BB0
5F70
7760
6BE0
71C0
3820
1FE0
0FC0
0000
0000
0000
0000
ENDCHAR

STARTCHAR CODE065
ENCODING 65
SWIDTH 451 0
DWIDTH 12 0
BBX 12 24 0 -2
BITMAP
0000
0000
0060
00E0
01E0
0360
0360
0760
0660
0E70
0DF0
1BE0
FE60
F860
1860
3060
3060
7070
6030
6030
0000
0000
0000
0000
ENDCHAR

STARTCHAR CODE066
ENCODING 66
SWIDTH 451 0
DWIDTH 12 0
BBX 12 24 0 -2
BITMAP
0000
0000
07C0
3FE0
3C70
0C30
0C70
1DE0
1BC0
1F00
39C0
30E0
3060
3060
7060
60E0
63C0
7F80
7E00
6000
0000
0000
0000
0000
ENDCHAR

STARTCHAR CODE067
ENCODING 67
SWIDTH 451 0
DWIDTH 12 0
BBX 12 24 0 -2
BITMAP
0000
0000
01E0
03F0
0730
0E70
1C60
18E0
39C0
3180
3000
7000
6000
6000
6060
6060
70E0
31C0
3F80
1F00
0000
0000
0000
0000
ENDCHAR

STARTCHAR CODE068
ENCODING 68
SWIDTH 451 0
DWIDTH 12 0
BBX 12 24 0 -2
BITMAP
0000
0000
0F00
3FC0
3DE0
0C60
1870
1830
1830
3830
3030
3030
3070
7060
60E0
60C0
61C0
6780
7F00
3C00
0000
0000
0000
0000
ENDCHAR

STARTCHAR CODE069
ENCODING 69
SWIDTH 451 0
DWIDTH 12 0
BBX 12 24 0 -2
BITMAP
0000
0000
07F0
1FF0
1C00
0C00
1800
1800
3BC0
37C0
3E00
3000
3000
7000
6000
6000
67C0
7FC0
7C00
6000
0000
0000
0000
0000
ENDCHAR

STARTCHAR CODE070
ENCODING 70
SWIDTH 451 0
DWIDTH 12 0
BBX 12 24 0 -2
BITMAP
0000
0000
07F0
1FF0
1C00
0C00
1C00
1800
1BC0
1FC0
3E00
3000
3000
3000
7000
6000
6000
6000
6000
6000
0000
0000
0000
0000
ENDCHAR

STARTCHAR CODE071
ENCODING 71
SWIDTH 451 0
DWIDTH 12 0
BBX 12 24 0 -2
BITMAP
0000
0000
0780
0FC0
1CE0
1860
3860
30E0
31C0
7180
6000
63E0
63E0
6060
60E0
71C0
3FC0
1EC0
00C0
00C0
0000
0000
0000
0000
ENDCHAR

STARTCHAR CODE072
ENCODING 72
SWIDTH 451 0
DWIDTH 12 0
BBX 12 24 0 -2
BITMAP
0000
0000
0610
0610
0E30
0C30
0C30
0C70
1C60
1860
1870
1FF0
7FC0
70C0
30C0
30C0
71C0
6180
6180
6180
0000
0000
0000
0000
ENDCHAR

STARTCHAR CODE073
ENCODING 73
SWIDTH 451 0
DWIDTH 12 0
BBX 12 24 0 -2
BITMAP
0000
0000
00C0
00C0
00C0
01C0
0180
0180
0380
0300
0300
0700
0600
0600
0600
0E00
0C00
0C00
0C00
0C00
0000
0000
0000
0000
ENDCHAR

STARTCHAR CODE074
ENCODING 74
SWIDTH 451 0
DWIDTH 12 0
BBX 12 24 0 -2
BITMAP
0000
0000
01F0
07F0
0760
0060
00E0
00C0
00C0
00C0
00C0
01C0
3180
3180
3180
7380
6300
6300
7F00
3E00
0000
0000
0000
0000
ENDCHAR

STARTCHAR CODE075
ENCODING 75
SWIDTH 451 0
DWIDTH 12 0
BBX 12 24 0 -2
BITMAP
0000
0000
0C00
0C30
0CF0
1DE0
1B80
1700
3C00
3C00
2C00
6C00
6C00
6C00
6E60
E660
C6E0
C7C0
C380
C000
0000
0000
0000
0000
ENDCHAR

STARTCHAR CODE076
ENCODING 76
SWIDTH 451 0
DWIDTH 12 0
BBX 12 24 0 -2
BITMAP
0000
0000
0300
0300
0300
0700
0600
0600
0E00
0C00
1C00
1800
1800
3800
3000
3000
3000
33C0
3FC0
1E00
0000
0000
0000
0000
ENDCHAR

STARTCHAR CODE077
ENCODING 77
SWIDTH 451 0
DWIDTH 12 0
BBX 12 24 0 -2
BITMAP
0000
0000
0C10
0C30
1C70
1C50
1CF0
3CB0
2DB0
2DB0
2DB0
6FF0
6B60
6F60
EE60
C660
C670
C030
C030
C000
0000
0000
0000
0000
ENDCHAR

STARTCHAR CODE078
ENCODING 78
SWIDTH 451 0
DWIDTH 12 0
BBX 12 24 0 -2
BITMAP
0000
0000
0610
0E10
0E10
1E30
1630
1630
3670
3660
3660
7660
66E0
66C0
62C0
E2C0
C3C0
C1C0
C1C0
C0C0
0000
0000
0000
0000
ENDCHAR

STARTCHAR CODE079
ENCODING 79
SWIDTH 451 0
DWIDTH 12 0
BBX 12 24 0 -2
BITMAP
0000
0000
0F80
1FC0
16E0
0E70
0C30
1C30
1830
3830
3030
3030
3070
7060
60E0
60C0
61C0
7380
3F00
1E00
0000
0000
0000
0000
ENDCHAR

STARTCHAR CODE080
ENCODING 80
SWIDTH 451 0
DWIDTH 12 0
BBX 12 24 0 -2
BITMAP
0000
0000
0380
0FE0
3EF0
7830
5830
1830
1870
1860
39E0
37C0
3F00
3000
3000
7000
6000
6000
6000
6000
0000
0000
0000
0000
ENDCHAR

STARTCHAR CODE081
ENCODING 81
SWIDTH 451 0
DWIDTH 12 0
BBX 12 24 0 -2
BITMAP
0000
0000
0F80
3FC0
36E0
0C60
1870
3830
3030
7030
6070
6060
6060
7CE0
5EC0
77C0
6580
7380
3F00
1F80
01C0
00F0
0070
0000
ENDCHAR

STARTCHAR CODE082
ENCODING 82
SWIDTH 451 0
DWIDTH 12 0
BBX 12 24 0 -2
BITMAP
0000
0000
07C0
1FE0
3CF0
2C30
1C30
1C30
1870
18E0
3FC0
3F80
3800
3C00
2C00
6E00
6600
6700
63C0
61C0
0000
0000
0000
0000
ENDCHAR

STARTCHAR CODE083
ENCODING 83
SWIDTH 451 0
DWIDTH 12 0
BBX 12 24 0 -2
BITMAP
0000
0000
01E0
07F0
0F30
1C30
1870
18E0
1BC0
0F80
0C00
0700
0380
19C0
38C0
70C0
60C0
79C0
3F80
1F00
0000
0000
0000
0000
ENDCHAR

STARTCHAR CODE084
ENCODING 84
SWIDTH 451 0
DWIDTH 12 0
BBX 12 24 0 -2
BITMAP
0000
0000
01F0
1FF0
7F00
7300
0300
0300
0700
0600
0600
0E00
0C00
0C00
0C00
1C00
1800
1800
1800
1800
0000
0000
0000
0000
ENDCHAR

STARTCHAR CODE085
ENCODING 85
SWIDTH 451 0
DWIDTH 12 0
BBX 12 24 0 -2
BITMAP
0000
0000
0610
0E10
1C30
1830
3870
3060
70E0
61E0
6160
63C0
E2C0
C6C0
C7C0
CD80
CD80
DD80
F980
7180
0000
0000
0000
0000
ENDCHAR

STARTCHAR CODE086
ENCODING 86
SWIDTH 451 0
DWIDTH 12 0
BBX 12 24 0 -2
BITMAP
0000
0000
3030
3030
3070
3060
70E0
60C0
61C0
6180
6380
6300
6700
7600
3600
3E00
2C00
3C00
1800
1800
0000
0000
0000
0000
ENDCHAR

STARTCHAR CODE087
ENCODING 87
SWIDTH 451 0
DWIDTH 12 0
BBX 12 24 0 -2
BITMAP
0000
0000
3030
3030
3070
7060
6060
60E0
66C0
6EC0
6EC0
6EC0
FFC0
D580
D580
F580
B780
F300
6300
6000
0000
0000
0000
0000
ENDCHAR

STARTCHAR CODE088
ENCODING 88
SWIDTH 451 0
DWIDTH 12 0
BBX 12 24 0 -2
BITMAP
0000
0000
0C10
0C10
0C30
0E70
0660
06E0
03C0
0380
0780
05C0
0EC0
0CC0
1CE0
1860
3860
3070
7030
6030
0000
0000
0000
0000
ENDCHAR

STARTCHAR CODE089
ENCODING 89
SWIDTH 451 0
DWIDTH 12 0
BBX 12 24 0 -2
BITMAP
0000
0000
0630
0E70
1C60
18E0
38C0
31C0
3180
7380
6700
6F00
6B00
7F00
3600
0600
0600
0E00
0C00
0C00
0000
0000
0000
0000
ENDCHAR

STARTCHAR CODE090
ENCODING 90
SWIDTH 451 0
DWIDTH 12 0
BBX 12 24 0 -2
BITMAP
0000
0000
01F0
3FF0
3F10
00F0
01C0
0380
0700
0E00
0C00
1C00
3800
3000
7000
6000
E3C0
DFC0
FE00
7000
0000
0000
0000
0000
ENDCHAR

STARTCHAR CODE091
ENCODING 91
SWIDTH 451 0
DWIDTH 12 0
BBX 12 24 0 -2
BITMAP
0000
0070
03F0
03C0
0300
0300
0300
0300
0300
0700
0600
0600
0600
0600
0E00
0C00
0C00
0C00
0C00
0DC0
0FC0
0F00
0000
0000
ENDCHAR

STARTCHAR CODE092
ENCODING 92
SWIDTH 451 0
DWIDTH 12 0
BBX 12 24 0 -2
BITMAP
0000
0000
0000
0010
0C30
0C30
0C70
0C60
1DF0
7BF0
7EC0
1BB0
F5F0
FF80
2D80
3F00
3700
3600
3600
3000
0000
0000
0000
0000
ENDCHAR

STARTCHAR CODE093
ENCODING 93
SWIDTH 451 0
DWIDTH 12 0
BBX 12 24 0 -2
BITMAP
0000
0780
1F80
1D80
0180
0180
0180
0380
0300
0300
0300
0300
0300
0300
0300
0700
0600
0600
0600
1E00
7E00
7000
0000
0000
ENDCHAR

STARTCHAR CODE094
ENCODING 94
SWIDTH 451 0
DWIDTH 12 0
BBX 12 24 0 -2
BITMAP
0000
0300
0780
0DC0
1CE0
1860
0000
0000
0000
0000
0000
0000
0000
0000
0000
0000
0000
0000
0000
0000
0000
0000
0000
0000
ENDCHAR

STARTCHAR CODE095
ENCODING 95
SWIDTH 451 0
DWIDTH 12 0
BBX 12 24 0 -2
BITMAP
0000
0000
0000
0000
0000
0000
0000
0000
0000
0000
0000
0000
0000
0000
0000
0000
0000
0000
0000
0000
0000
7FF0
7FF0
0000
ENDCHAR

STARTCHAR CODE096
ENCODING 96
SWIDTH 451 0
DWIDTH 12 0
BBX 12 24 0 -2
BITMAP
0000
0000
0700
0700
0700
0600
0300
0000
0000
0000
0000
0000
0000
0000
0000
0000
0000
0000
0000
0000
0000
0000
0000
0000
ENDCHAR

STARTCHAR CODE097
ENCODING 97
SWIDTH 451 0
DWIDTH 12 0
BBX 12 24 0 -2
BITMAP
0000
0000
0000
0000
0000
0000
0000
0000
0000
0000
0600
0F00
1B00
1B00
3B00
3300
3780
3DC0
1CC0
0000
0000
0000
0000
0000
ENDCHAR

STARTCHAR CODE098
ENCODING 98
SWIDTH 451 0
DWIDTH 12 0
BBX 12 24 0 -2
BITMAP
0000
0000
0000
0180
0180
0380
0300
0300
0700
0600
0600
0F80
0BC0
0EC0
0CC0
1CC0
19C0
1F80
1F00
1800
0000
0000
0000
0000
ENDCHAR

STARTCHAR CODE099
ENCODING 99
SWIDTH 451 0
DWIDTH 12 0
BBX 12 24 0 -2
BITMAP
0000
0000
0000
0000
0000
0000
0000
0000
0000
0000
0700
0F80
1D80
1B80
1B00
18C0
1DC0
0F80
0700
0000
0000
0000
0000
0000
ENDCHAR

STARTCHAR CODE100
ENCODING 100
SWIDTH 451 0
DWIDTH 12 0
BBX 12 24 0 -2
BITMAP
0000
0000
0000
00C0
00C0
00C0
00C0
01C0
0180
0180
0380
0F00
1F00
3B00
3300
3300
3780
3DC0
1CC0
0000
0000
0000
0000
0000
ENDCHAR

STARTCHAR CODE101
ENCODING 101
SWIDTH 451 0
DWIDTH 12 0
BBX 12 24 0 -2
BITMAP
0000
0000
0000
0000
0000
0000
0000
0000
0000
0000
0000
0E00
1F00
3B00
3600
2CC0
33C0
3F80
1E00
0000
0000
0000
0000
0000
ENDCHAR

STARTCHAR CODE102
ENCODING 102
SWIDTH 451 0
DWIDTH 12 0
BBX 12 24 0 -2
BITMAP
0000
0000
00C0
01C0
0180
0380
0300
0700
0600
0E00
0DE0
1FE0
1F00
0C00
1600
1F00
1B00
1B00
1B00
1B00
1F00
1600
1E00
0C00
ENDCHAR

STARTCHAR CODE103
ENCODING 103
SWIDTH 451 0
DWIDTH 12 0
BBX 12 24 0 -2
BITMAP
0000
0000
0000
0000
0000
0000
0000
0000
0000
0000
0780
0FC0
1CC0
19F0
1BB0
1F60
0DC0
0700
1B00
1B00
3B00
3700
3E00
1C00
ENDCHAR

STARTCHAR CODE104
ENCODING 104
SWIDTH 451 0
DWIDTH 12 0
BBX 12 24 0 -2
BITMAP
0000
0000
0000
0600
0600
0600
0600
0600
0E00
0C00
0C00
0F00
1B80
1580
1FE0
1B60
3BE0
32C0
3180
0000
0000
0000
0000
0000
ENDCHAR

STARTCHAR CODE105
ENCODING 105
SWIDTH 451 0
DWIDTH 12 0
BBX 12 24 0 -2
BITMAP
0000
0000
0000
0000
0000
0000
01C0
01C0
01C0
0000
0300
0300
0300
0700
0600
0600
0E00
0C00
0C00
0000
0000
0000
0000
0000
ENDCHAR

STARTCHAR CODE106
ENCODING 106
SWIDTH 451 0
DWIDTH 12 0
BBX 12 24 0 -2
BITMAP
0000
0000
0000
0000
0000
0000
01C0
01C0
01C0
0000
0180
0180
01E0
0360
02C0
0780
0F00
1B00
3600
7600
6E00
7C00
3800
0000
ENDCHAR

STARTCHAR CODE107
ENCODING 107
SWIDTH 451 0
DWIDTH 12 0
BBX 12 24 0 -2
BITMAP
0000
0000
0000
0380
07C0
0EC0
0DC0
0D80
1F80
1B00
16C0
1DC0
3B00
3600
2C00
3C60
6E60
66E0
67C0
6380
0000
0000
0000
0000
ENDCHAR

STARTCHAR CODE108
ENCODING 108
SWIDTH 451 0
DWIDTH 12 0
BBX 12 24 0 -2
BITMAP
0000
0000
00C0
01E0
0360
0360
0760
06E0
06C0
0FC0
0D80
0F80
0B00
0E00
0C00
0CC0
0DC0
0F80
0700
0000
0000
0000
0000
0000
ENDCHAR

STARTCHAR CODE109
ENCODING 109
SWIDTH 451 0
DWIDTH 12 0
BBX 12 24 0 -2
BITMAP
0000
0000
0000
0000
0000
0000
0000
0000
0000
0000
36C0
3FE0
2D60
36C0
7FC0
6D80
6DE0
6CE0
6000
0000
0000
0000
0000
0000
ENDCHAR

STARTCHAR CODE110
ENCODING 110
SWIDTH 451 0
DWIDTH 12 0
BBX 12 24 0 -2
BITMAP
0000
0000
0000
0000
0000
0000
0000
0000
0000
0000
1B00
1F00
1700
1B00
1F00
3600
3600
3700
3300
0000
0000
0000
0000
0000
ENDCHAR

STARTCHAR CODE111
ENCODING 111
SWIDTH 451 0
DWIDTH 12 0
BBX 12 24 0 -2
BITMAP
0000
0000
0000
0000
0000
0000
0000
0000
0000
0000
0700
0F80
0D80
1D80
1980
1B80
1B00
1F00
0E00
0000
0000
0000
0000
0000
ENDCHAR

STARTCHAR CODE112
ENCODING 112
SWIDTH 451 0
DWIDTH 12 0
BBX 12 24 0 -2
BITMAP
0000
0000
0000
0000
0000
0000
0000
0000
0000
0000
0B00
0F80
1D80
1980
1980
1B80
1F00
3E00
3000
3000
3000
3000
3000
3000
ENDCHAR

STARTCHAR CODE113
ENCODING 113
SWIDTH 451 0
DWIDTH 12 0
BBX 12 24 0 -2
BITMAP
0000
0000
0000
0000
0000
0000
0000
0000
0000
0000
0700
0F80
1D80
1980
1980
1F80
1700
0B00
0300
0700
0600
0600
0600
0600
ENDCHAR

STARTCHAR CODE114
ENCODING 114
SWIDTH 451 0
DWIDTH 12 0
BBX 12 24 0 -2
BITMAP
0000
0000
0000
0000
0000
0000
0000
0000
0000
0000
0C00
0D80
1FE0
1760
1DC0
3800
3000
3000
3000
3000
0000
0000
0000
0000
ENDCHAR

STARTCHAR CODE115
ENCODING 115
SWIDTH 451 0
DWIDTH 12 0
BBX 12 24 0 -2
BITMAP
0000
0000
0000
0000
0000
0000
0000
0000
0000
0000
0780
0FC0
0CC0
0F80
1600
1F00
1B00
1F00
0E00
0000
0000
0000
0000
0000
ENDCHAR

STARTCHAR CODE116
ENCODING 116
SWIDTH 451 0
DWIDTH 12 0
BBX 12 24 0 -2
BITMAP
0000
0000
0000
0000
0000
0180
0180
0380
0360
1FE0
1E00
0600
0600
0E00
0C00
0CC0
0DC0
0F80
0700
0000
0000
0000
0000
0000
ENDCHAR

STARTCHAR CODE117
ENCODING 117
SWIDTH 451 0
DWIDTH 12 0
BBX 12 24 0 -2
BITMAP
0000
0000
0000
0000
0000
0000
0000
0000
0000
0000
0000
0600
0F80
1D80
1B80
1B00
1F80
15C0
0CC0
0000
0000
0000
0000
0000
ENDCHAR

STARTCHAR CODE118
ENCODING 118
SWIDTH 451 0
DWIDTH 12 0
BBX 12 24 0 -2
BITMAP
0000
0000
0000
0000
0000
0000
0000
0000
0000
0000
0000
06C0
0EC0
0DF0
1F70
1B00
1F00
1600
0C00
0000
0000
0000
0000
0000
ENDCHAR

STARTCHAR CODE119
ENCODING 119
SWIDTH 451 0
DWIDTH 12 0
BBX 12 24 0 -2
BITMAP
0000
0000
0000
0000
0000
0000
0000
0000
0000
0000
0060
1B60
3B60
3760
76E0
6EC0
7FC0
5580
3300
0000
0000
0000
0000
0000
ENDCHAR

STARTCHAR CODE120
ENCODING 120
SWIDTH 451 0
DWIDTH 12 0
BBX 12 24 0 -2
BITMAP
0000
0000
0000
0000
0000
0000
0000
0000
0000
0000
0000
1980
1B80
0F00
0660
0660
0EE0
1BC0
1980
0000
0000
0000
0000
0000
ENDCHAR

STARTCHAR CODE121
ENCODING 121
SWIDTH 451 0
DWIDTH 12 0
BBX 12 24 0 -2
BITMAP
0000
0000
0000
0000
0000
0000
0000
0000
0000
0000
0000
0D80
1D80
1BE0
3F60
37E0
1AC0
0780
1F00
3B00
3600
3E00
2C00
1800
ENDCHAR

STARTCHAR CODE122
ENCODING 122
SWIDTH 451 0
DWIDTH 12 0
BBX 12 24 0 -2
BITMAP
0000
0000
0000
0000
0000
0000
0000
0000
0000
0000
0780
1F80
1D80
0300
0E00
0C00
1F80
1B80
1E00
0000
0000
0000
0000
0000
ENDCHAR

STARTCHAR CODE123
ENCODING 123
SWIDTH 451 0
DWIDTH 12 0
BBX 12 24 0 -2
BITMAP
0000
0070
00F0
01D0
0180
0180
0380
0300
0700
1E00
7C00
7000
1C00
0E00
0600
0600
0E00
0C00
0C00
0E00
07C0
03C0
0000
0000
ENDCHAR

STARTCHAR CODE124
ENCODING 124
SWIDTH 451 0
DWIDTH 12 0
BBX 12 24 0 -2
BITMAP
0000
0000
0180
0180
0180
0180
0380
0300
0300
0300
0700
0600
0600
0600
0E00
0C00
0C00
0C00
1C00
1800
1800
1800
0000
0000
ENDCHAR

STARTCHAR CODE125
ENCODING 125
SWIDTH 451 0
DWIDTH 12 0
BBX 12 24 0 -2
BITMAP
0000
0700
0F80
0DC0
00C0
00C0
01C0
0180
0180
01C0
00F0
0070
01C0
0380
0300
0300
0300
0700
6600
6E00
7C00
3800
0000
0000
ENDCHAR

STARTCHAR CODE126
ENCODING 126
SWIDTH 451 0
DWIDTH 12 0
BBX 12 24 0 -2
BITMAP
0000
0000
0000
0000
0000
0000
0000
0000
0000
0000
1E60
3FE0
33C0
0000
0000
0000
0000
0000
0000
0000
0000
0000
0000
0000
ENDCHAR

STARTCHAR CODE127
ENCODING 127
SWIDTH 451 0
DWIDTH 12 0
BBX 12 24 0 -2
BITMAP
0000
0000
0000
0000
0000
0000
0000
0000
0000
0000
0000
0000
0000
0000
0000
0000
0000
0000
0000
0000
0000
0000
0000
0000
ENDCHAR

STARTCHAR CODE128
ENCODING 128
SWIDTH 451 0
DWIDTH 12 0
BBX 12 24 0 -2
BITMAP
0000
01E0
03F0
0730
0E30
0C30
1C70
18E0
38C0
3000
3000
7000
6060
6060
60E0
71C0
3F80
1F00
0600
0D00
0F80
0180
0300
0000
ENDCHAR

STARTCHAR CODE129
ENCODING 129
SWIDTH 451 0
DWIDTH 12 0
BBX 12 24 0 -2
BITMAP
0000
0000
0000
0000
0000
0000
0DC0
0DC0
0DC0
0000
0000
0580
0D80
0D80
1F80
1B00
1B00
1FC0
0DC0
0000
0000
0000
0000
0000
ENDCHAR

STARTCHAR CODE130
ENCODING 130
SWIDTH 451 0
DWIDTH 12 0
BBX 12 24 0 -2
BITMAP
0000
0000
0000
0000
0000
0000
0180
0380
0700
0600
0000
0E00
1F00
3B00
3600
2D80
3380
1F00
0E00
0000
0000
0000
0000
0000
ENDCHAR

STARTCHAR CODE131
ENCODING 131
SWIDTH 451 0
DWIDTH 12 0
BBX 12 24 0 -2
BITMAP
0000
0000
0000
0000
0000
0000
0180
03C0
06E0
0660
0100
0780
0D80
0D80
1D80
1980
1BC0
1EE0
0E60
0000
0000
0000
0000
0000
ENDCHAR

STARTCHAR CODE132
ENCODING 132
SWIDTH 451 0
DWIDTH 12 0
BBX 12 24 0 -2
BITMAP
0000
0000
0000
0000
0000
0000
06E0
06E0
06E0
0000
0300
0780
0D80
0D80
1D80
1980
1BC0
1EE0
0E60
0000
0000
0000
0000
0000
ENDCHAR

STARTCHAR CODE133
ENCODING 133
SWIDTH 451 0
DWIDTH 12 0
BBX 12 24 0 -2
BITMAP
0000
0000
0000
0000
0000
0000
0600
0700
0380
0180
0200
0780
0D80
0D80
1D80
1980
1BC0
1EE0
0E60
0000
0000
0000
0000
0000
ENDCHAR

STARTCHAR CODE134
ENCODING 134
SWIDTH 451 0
DWIDTH 12 0
BBX 12 24 0 -2
BITMAP
0000
0000
0000
0000
0000
0180
03C0
02C0
03C0
0180
0200
0780
0D80
0D80
1D80
1980
1BC0
1EE0
0E60
0000
0000
0000
0000
0000
ENDCHAR

STARTCHAR CODE135
ENCODING 135
SWIDTH 451 0
DWIDTH 12 0
BBX 12 24 0 -2
BITMAP
0000
0000
0000
0000
0000
0000
0000
0000
0000
0000
0300
0780
0D80
1F80
1B00
18C0
1DC0
0F80
0700
0E00
0C00
0700
0B00
0E00
ENDCHAR

STARTCHAR CODE136
ENCODING 136
SWIDTH 451 0
DWIDTH 12 0
BBX 12 24 0 -2
BITMAP
0000
0000
0000
0000
0000
0000
0180
03C0
06E0
0660
0000
0700
0F80
1D80
1B00
16C0
19C0
1F80
0F00
0000
0000
0000
0000
0000
ENDCHAR

STARTCHAR CODE137
ENCODING 137
SWIDTH 451 0
DWIDTH 12 0
BBX 12 24 0 -2
BITMAP
0000
0000
0000
0000
0000
0000
06E0
06E0
06E0
0000
0000
0700
0F80
1D80
1B00
16C0
19C0
1F80
0F00
0000
0000
0000
0000
0000
ENDCHAR

STARTCHAR CODE138
ENCODING 138
SWIDTH 451 0
DWIDTH 12 0
BBX 12 24 0 -2
BITMAP
0000
0000
0000
0000
0000
0000
0600
0700
0380
0180
0000
0E00
1F00
3B00
3600
2D80
3380
3F00
1E00
0000
0000
0000
0000
0000
ENDCHAR

STARTCHAR CODE139
ENCODING 139
SWIDTH 451 0
DWIDTH 12 0
BBX 12 24 0 -2
BITMAP
0000
0000
0000
0000
0000
0000
0DC0
0DC0
0DC0
0000
0000
0300
0300
0300
0700
0600
0E00
0C00
0C00
0000
0000
0000
0000
0000
ENDCHAR

STARTCHAR CODE140
ENCODING 140
SWIDTH 451 0
DWIDTH 12 0
BBX 12 24 0 -2
BITMAP
0000
0000
0000
0000
0000
0000
0300
0780
0DC0
0CC0
0000
0300
0300
0300
0700
0600
0E00
0C00
0C00
0000
0000
0000
0000
0000
ENDCHAR

STARTCHAR CODE141
ENCODING 141
SWIDTH 451 0
DWIDTH 12 0
BBX 12 24 0 -2
BITMAP
0000
0000
0000
0000
0000
0000
0600
0700
0380
0180
0000
0300
0300
0300
0700
0600
0E00
0C00
0C00
0000
0000
0000
0000
0000
ENDCHAR

STARTCHAR CODE142
ENCODING 142
SWIDTH 451 0
DWIDTH 12 0
BBX 12 24 0 -2
BITMAP
0370
0370
0370
0000
0060
00E0
01E0
0360
0760
0660
0E60
0DF0
1FF0
FF60
F860
0060
3060
7070
6030
6030
0000
0000
0000
0000
ENDCHAR

STARTCHAR CODE143
ENCODING 143
SWIDTH 451 0
DWIDTH 12 0
BBX 12 24 0 -2
BITMAP
00C0
01E0
0160
01E0
00C0
0060
01E0
0360
0360
0760
0E60
0DF0
1FF0
FF60
F860
1860
3060
7070
6030
6030
0000
0000
0000
0000
ENDCHAR

STARTCHAR CODE144
ENCODING 144
SWIDTH 451 0
DWIDTH 12 0
BBX 12 24 0 -2
BITMAP
00C0
01C0
0380
0300
00F0
1FF0
1F80
0C00
1800
1BC0
1FC0
3E00
3000
3000
3000
7000
67C0
7FC0
7C00
0000
0000
0000
0000
0000
ENDCHAR

STARTCHAR CODE145
ENCODING 145
SWIDTH 451 0
DWIDTH 12 0
BBX 12 24 0 -2
BITMAP
0000
0000
0000
0000
0000
0000
0000
0000
0000
0000
3BC0
7FE0
6660
1EE0
3FC0
77B0
6E70
7FE0
3BC0
0000
0000
0000
0000
0000
ENDCHAR

STARTCHAR CODE146
ENCODING 146
SWIDTH 451 0
DWIDTH 12 0
BBX 12 24 0 -2
BITMAP
0000
0000
00F0
0FF0
0F80
0580
0D80
0D80
1D80
1BF0
F7F0
FD80
3300
3300
7300
6300
6370
63F0
63C0
0000
0000
0000
0000
0000
ENDCHAR

STARTCHAR CODE147
ENCODING 147
SWIDTH 451 0
DWIDTH 12 0
BBX 12 24 0 -2
BITMAP
0000
0000
0000
0000
0000
0000
0180
03C0
06E0
0660
0180
07C0
06C0
06C0
0EC0
0DC0
0D80
0F80
0700
0000
0000
0000
0000
0000
ENDCHAR

STARTCHAR CODE148
ENCODING 148
SWIDTH 451 0
DWIDTH 12 0
BBX 12 24 0 -2
BITMAP
0000
0000
0000
0000
0000
0000
0DC0
0DC0
0DC0
0000
0700
0F80
0D80
0D80
1D80
1B80
1B00
1F00
0E00
0000
0000
0000
0000
0000
ENDCHAR

STARTCHAR CODE149
ENCODING 149
SWIDTH 451 0
DWIDTH 12 0
BBX 12 24 0 -2
BITMAP
0000
0000
0000
0000
0000
0000
0300
0380
01C0
00C0
0700
0F80
0D80
0D80
1D80
1B80
1B00
1F00
0E00
0000
0000
0000
0000
0000
ENDCHAR

STARTCHAR CODE150
ENCODING 150
SWIDTH 451 0
DWIDTH 12 0
BBX 12 24 0 -2
BITMAP
0000
0000
0000
0000
0000
0000
0300
0780
0DC0
0CC0
0000
0C00
0D80
1D80
1B80
1B00
1F00
1780
0D80
0000
0000
0000
0000
0000
ENDCHAR

STARTCHAR CODE151
ENCODING 151
SWIDTH 451 0
DWIDTH 12 0
BBX 12 24 0 -2
BITMAP
0000
0000
0000
0000
0000
0000
0600
0700
0380
0180
0000
0C00
0D80
1D80
1B80
1B00
1F00
1780
0D80
0000
0000
0000
0000
0000
ENDCHAR

STARTCHAR CODE152
ENCODING 152
SWIDTH 451 0
DWIDTH 12 0
BBX 12 24 0 -2
BITMAP
0000
0000
0000
0000
0000
0000
0DC0
0DC0
0DC0
0000
0000
0D80
1D80
3BE0
3760
3FE0
1AC0
0780
1F00
3B00
3600
3600
1E00
0C00
ENDCHAR

STARTCHAR CODE153
ENCODING 153
SWIDTH 451 0
DWIDTH 12 0
BBX 12 24 0 -2
BITMAP
06E0
06E0
06E0
0000
0FC0
3FE0
3670
0C30
1830
3830
3030
3070
7060
6060
60E0
60C0
61C0
7380
3F00
1E00
0000
0000
0000
0000
ENDCHAR

STARTCHAR CODE154
ENCODING 154
SWIDTH 451 0
DWIDTH 12 0
BBX 12 24 0 -2
BITMAP
06E0
06E0
06E0
0000
0610
0E30
1C30
1870
3860
30E0
30E0
71E0
6160
63E0
62C0
66C0
66C0
6EC0
3CC0
18C0
0000
0000
0000
0000
ENDCHAR

STARTCHAR CODE155
ENCODING 155
SWIDTH 451 0
DWIDTH 12 0
BBX 12 24 0 -2
BITMAP
0000
0000
0000
0000
0000
0000
0000
0180
0180
0F80
1F00
3B00
3700
3EC0
2DC0
1F80
1F00
3800
3000
0000
0000
0000
0000
0000
ENDCHAR

STARTCHAR CODE156
ENCODING 156
SWIDTH 451 0
DWIDTH 12 0
BBX 12 24 0 -2
BITMAP
0000
0000
0000
0000
0000
01E0
03E0
0300
0700
0600
07E0
7FE0
7C00
0C00
0C00
1C00
1BE0
37E0
7C00
6000
0000
0000
0000
0000
ENDCHAR

STARTCHAR CODE157
ENCODING 157
SWIDTH 451 0
DWIDTH 12 0
BBX 12 24 0 -2
BITMAP
0000
0000
0000
0000
0000
3030
3870
1CE0
0CC0
0DC0
0580
0780
0760
3BE0
3E00
47C0
7C00
0C00
1800
1800
0000
0000
0000
0000
ENDCHAR

STARTCHAR CODE158
ENCODING 158
SWIDTH 451 0
DWIDTH 12 0
BBX 12 24 0 -2
BITMAP
0000
0000
3000
3C00
7E00
7760
3360
3360
33E0
76D0
6FF0
FBC0
F8C0
6180
6180
E1B0
C1B0
C1F0
C0E0
C000
0000
0000
0000
0000
ENDCHAR

STARTCHAR CODE159
ENCODING 159
SWIDTH 451 0
DWIDTH 12 0
BBX 12 24 0 -2
BITMAP
0000
0000
0000
00F0
01F0
0190
0180
0380
0300
03E0
0FE0
0F00
0300
0300
0700
0600
0600
0600
0600
0E00
0C00
0C00
0000
0000
ENDCHAR

STARTCHAR CODE160
ENCODING 160
SWIDTH 451 0
DWIDTH 12 0
BBX 12 24 0 -2
BITMAP
0000
0000
0000
0000
0000
0000
00C0
01C0
0380
0300
0000
0780
0D80
0D80
1D80
1B80
1B40
1EE0
0E60
0000
0000
0000
0000
0000
ENDCHAR

STARTCHAR CODE161
ENCODING 161
SWIDTH 451 0
DWIDTH 12 0
BBX 12 24 0 -2
BITMAP
0000
0000
0000
0000
0000
0000
00C0
01C0
0380
0300
0000
0300
0300
0300
0700
0600
0E00
0C00
0C00
0000
0000
0000
0000
0000
ENDCHAR

STARTCHAR CODE162
ENCODING 162
SWIDTH 451 0
DWIDTH 12 0
BBX 12 24 0 -2
BITMAP
0000
0000
0000
0000
0000
0000
0180
0380
0700
0600
0100
0F80
0D80
1D80
1980
1B80
1B00
1F00
0E00
0000
0000
0000
0000
0000
ENDCHAR

STARTCHAR CODE163
ENCODING 163
SWIDTH 451 0
DWIDTH 12 0
BBX 12 24 0 -2
BITMAP
0000
0000
0000
0000
0000
0000
0180
0380
0700
0600
0000
0580
0D80
0F80
1B00
1B00
1F00
1780
0D80
0000
0000
0000
0000
0000
ENDCHAR

STARTCHAR CODE164
ENCODING 164
SWIDTH 451 0
DWIDTH 12 0
BBX 12 24 0 -2
BITMAP
0000
0000
0000
0000
0000
0000
0000
0EC0
1FC0
1B80
0000
1700
1F80
1D80
1B00
3F00
3680
3580
3300
0000
0000
0000
0000
0000
ENDCHAR

STARTCHAR CODE165
ENCODING 165
SWIDTH 451 0
DWIDTH 12 0
BBX 12 24 0 -2
BITMAP
0000
07B0
0FF0
0CE0
0010
0630
0E30
1E30
1670
3660
3660
3660
76E0
66C0
66C0
62C0
E2C0
C3C0
C180
C180
0000
0000
0000
0000
ENDCHAR

STARTCHAR CODE166
ENCODING 166
SWIDTH 451 0
DWIDTH 12 0
BBX 12 24 0 -2
BITMAP
0000
0000
0300
0780
0D80
0F80
0BC0
06C0
0100
07C0
0000
0000
0000
0000
0000
0000
0000
0000
0000
0000
0000
0000
0000
0000
ENDCHAR

STARTCHAR CODE167
ENCODING 167
SWIDTH 451 0
DWIDTH 12 0
BBX 12 24 0 -2
BITMAP
0000
0000
0300
0780
0D80
0F80
0B00
0600
0980
0F80
0000
0000
0000
0000
0000
0000
0000
0000
0000
0000
0000
0000
0000
0000
ENDCHAR

STARTCHAR CODE168
ENCODING 168
SWIDTH 451 0
DWIDTH 12 0
BBX 12 24 0 -2
BITMAP
0000
0000
0000
0000
0000
0380
0380
0380
0000
0000
0300
0300
0300
0700
0600
0E00
1C00
3800
7000
6180
6180
7380
3F00
1E00
ENDCHAR

STARTCHAR CODE169
ENCODING 169
SWIDTH 451 0
DWIDTH 12 0
BBX 12 24 0 -2
BITMAP
0000
0000
0000
0000
0000
0000
0000
0000
0000
7FF0
7FF0
6000
6000
6000
6000
0000
0000
0000
0000
0000
0000
0000
0000
0000
ENDCHAR

STARTCHAR CODE170
ENCODING 170
SWIDTH 451 0
DWIDTH 12 0
BBX 12 24 0 -2
BITMAP
0000
0000
0000
0000
0000
0000
0000
0000
0000
7FF0
7FF0
0030
0030
0030
0030
0000
0000
0000
0000
0000
0000
0000
0000
0000
ENDCHAR

STARTCHAR CODE171
ENCODING 171
SWIDTH 451 0
DWIDTH 12 0
BBX 12 24 0 -2
BITMAP
00C0
01C0
07C0
06C0
0180
0180
0380
0300
0300
0300
00F0
3FF0
3E00
0100
1F80
1980
0180
0380
0700
0E00
1DC0
17C0
1C00
0000
ENDCHAR

STARTCHAR CODE172
ENCODING 172
SWIDTH 451 0
DWIDTH 12 0
BBX 12 24 0 -2
BITMAP
00C0
01C0
07C0
06C0
0180
0180
0380
0300
0300
0300
00F0
3FF0
3E00
01C0
03C0
06C0
0D80
1D80
1BC0
1FC0
0300
0300
0300
0000
ENDCHAR

STARTCHAR CODE173
ENCODING 173
SWIDTH 451 0
DWIDTH 12 0
BBX 12 24 0 -2
BITMAP
0000
0000
0000
0000
01C0
01C0
01C0
0000
0300
0300
0700
0600
0600
0E00
0C00
0C00
1C00
1800
1800
3800
3000
3000
0000
0000
ENDCHAR

STARTCHAR CODE174
ENCODING 174
SWIDTH 451 0
DWIDTH 12 0
BBX 12 24 0 -2
BITMAP
0000
0000
0000
0000
0000
0000
0000
0000
0000
06C0
0FC0
0D80
0DC0
0DC0
0000
0000
0000
0000
0000
0000
0000
0000
0000
0000
ENDCHAR

STARTCHAR CODE175
ENCODING 175
SWIDTH 451 0
DWIDTH 12 0
BBX 12 24 0 -2
BITMAP
0000
0000
0000
0000
0000
0000
0000
0000
0000
1B80
1B80
1F80
0D80
1B00
0000
0000
0000
0000
0000
0000
0000
0000
0000
0000
ENDCHAR

STARTCHAR CODE176
ENCODING 176
SWIDTH 451 0
DWIDTH 12 0
BBX 12 24 0 -2
BITMAP
5550
5550
0000
5550
0000
5550
0000
5550
0000
5550
0000
5550
0000
5550
0000
5550
0000
5550
0000
5550
0000
5550
0000
5550
ENDCHAR

STARTCHAR CODE177
ENCODING 177
SWIDTH 451 0
DWIDTH 12 0
BBX 12 24 0 -2
BITMAP
6DB0
6DB0
6DB0
0000
6DB0
6DB0
0000
6DB0
6DB0
0000
6DB0
6DB0
0000
6DB0
6DB0
0000
6DB0
6DB0
0000
6DB0
6DB0
0000
6DB0
6DB0
ENDCHAR

STARTCHAR CODE178
ENCODING 178
SWIDTH 451 0
DWIDTH 12 0
BBX 12 24 0 -2
BITMAP
7770
7770
7770
7770
0000
7770
7770
7770
0000
7770
7770
7770
0000
7770
7770
7770
0000
7770
7770
7770
0000
7770
7770
7770
ENDCHAR

STARTCHAR CODE179
ENCODING 179
SWIDTH 451 0
DWIDTH 12 0
BBX 12 24 0 -2
BITMAP
0300
0300
0300
0300
0300
0300
0300
0300
0300
0300
0300
0300
0300
0300
0300
0300
0300
0300
0300
0300
0300
0300
0300
0300
ENDCHAR

STARTCHAR CODE180
ENCODING 180
SWIDTH 451 0
DWIDTH 12 0
BBX 12 24 0 -2
BITMAP
0300
0300
0300
0300
0300
0300
0300
0300
0300
0300
0300
7F00
7F00
0300
0300
0300
0300
0300
0300
0300
0300
0300
0300
0300
ENDCHAR

STARTCHAR CODE181
ENCODING 181
SWIDTH 451 0
DWIDTH 12 0
BBX 12 24 0 -2
BITMAP
0300
0300
0300
0300
0300
0300
0300
0300
0300
0300
7F00
7F00
0300
7F00
0300
0300
0300
0300
0300
0300
0300
0300
0300
0300
ENDCHAR

STARTCHAR CODE182
ENCODING 182
SWIDTH 451 0
DWIDTH 12 0
BBX 12 24 0 -2
BITMAP
0580
0580
0580
0580
0580
0580
0580
0580
0580
0580
0580
7D80
7D80
0580
0580
0580
0580
0580
0580
0580
0580
0580
0580
0580
ENDCHAR

STARTCHAR CODE183
ENCODING 183
SWIDTH 451 0
DWIDTH 12 0
BBX 12 24 0 -2
BITMAP
0000
0000
0000
0000
0000
0000
0000
0000
0000
0000
0000
7F80
7F80
0580
0580
0580
0580
0580
0580
0580
0580
0580
0580
0580
ENDCHAR

STARTCHAR CODE184
ENCODING 184
SWIDTH 451 0
DWIDTH 12 0
BBX 12 24 0 -2
BITMAP
0000
0000
0000
0000
0000
0000
0000
0000
0000
0000
7F00
7F00
0300
7F00
0300
0300
0300
0300
0300
0300
0300
0300
0300
0300
ENDCHAR

STARTCHAR CODE185
ENCODING 185
SWIDTH 451 0
DWIDTH 12 0
BBX 12 24 0 -2
BITMAP
0580
0580
0580
0580
0580
0580
0580
0580
0580
0580
7D80
7D80
0180
7D80
0580
0580
0580
0580
0580
0580
0580
0580
0580
0580
ENDCHAR

STARTCHAR CODE186
ENCODING 186
SWIDTH 451 0
DWIDTH 12 0
BBX 12 24 0 -2
BITMAP
0580
0580
0580
0580
0580
0580
0580
0580
0580
0580
0580
0580
0580
0580
0580
0580
0580
0580
0580
0580
0580
0580
0580
0580
ENDCHAR

STARTCHAR CODE187
ENCODING 187
SWIDTH 451 0
DWIDTH 12 0
BBX 12 24 0 -2
BITMAP
0000
0000
0000
0000
0000
0000
0000
0000
0000
0000
7F80
7F80
0180
7D80
0580
0580
0580
0580
0580
0580
0580
0580
0580
0580
ENDCHAR

STARTCHAR CODE188
ENCODING 188
SWIDTH 451 0
DWIDTH 12 0
BBX 12 24 0 -2
BITMAP
0580
0580
0580
0580
0580
0580
0580
0580
0580
0580
7D80
7D80
0380
7F80
0000
0000
0000
0000
0000
0000
0000
0000
0000
0000
ENDCHAR

STARTCHAR CODE189
ENCODING 189
SWIDTH 451 0
DWIDTH 12 0
BBX 12 24 0 -2
BITMAP
0580
0580
0580
0580
0580
0580
0580
0580
0580
0580
0580
7F80
7F80
0000
0000
0000
0000
0000
0000
0000
0000
0000
0000
0000
ENDCHAR

STARTCHAR CODE190
ENCODING 190
SWIDTH 451 0
DWIDTH 12 0
BBX 12 24 0 -2
BITMAP
0300
0300
0300
0300
0300
0300
0300
0300
0300
7F00
7F00
0300
7F00
7F00
0000
0000
0000
0000
0000
0000
0000
0000
0000
0000
ENDCHAR

STARTCHAR CODE191
ENCODING 191
SWIDTH 451 0
DWIDTH 12 0
BBX 12 24 0 -2
BITMAP
0000
0000
0000
0000
0000
0000
0000
0000
0000
0000
0000
7F00
7F00
0300
0300
0300
0300
0300
0300
0300
0300
0300
0300
0300
ENDCHAR

STARTCHAR CODE192
ENCODING 192
SWIDTH 451 0
DWIDTH 12 0
BBX 12 24 0 -2
BITMAP
0300
0300
0300
0300
0300
0300
0300
0300
0300
0300
0300
03F0
03F0
0000
0000
0000
0000
0000
0000
0000
0000
0000
0000
0000
ENDCHAR

STARTCHAR CODE193
ENCODING 193
SWIDTH 451 0
DWIDTH 12 0
BBX 12 24 0 -2
BITMAP
0300
0300
0300
0300
0300
0300
0300
0300
0300
0300
0300
7FF0
7FF0
0000
0000
0000
0000
0000
0000
0000
0000
0000
0000
0000
ENDCHAR

STARTCHAR CODE194
ENCODING 194
SWIDTH 451 0
DWIDTH 12 0
BBX 12 24 0 -2
BITMAP
0000
0000
0000
0000
0000
0000
0000
0000
0000
0000
0000
7FF0
7FF0
0300
0300
0300
0300
0300
0300
0300
0300
0300
0300
0300
ENDCHAR

STARTCHAR CODE195
ENCODING 195
SWIDTH 451 0
DWIDTH 12 0
BBX 12 24 0 -2
BITMAP
0300
0300
0300
0300
0300
0300
0300
0300
0300
0300
0300
03F0
03F0
0300
0300
0300
0300
0300
0300
0300
0300
0300
0300
0300
ENDCHAR

STARTCHAR CODE196
ENCODING 196
SWIDTH 451 0
DWIDTH 12 0
BBX 12 24 0 -2
BITMAP
0000
0000
0000
0000
0000
0000
0000
0000
0000
0000
0000
7FF0
7FF0
0000
0000
0000
0000
0000
0000
0000
0000
0000
0000
0000
ENDCHAR

STARTCHAR CODE197
ENCODING 197
SWIDTH 451 0
DWIDTH 12 0
BBX 12 24 0 -2
BITMAP
0300
0300
0300
0300
0300
0300
0300
0300
0300
0300
0300
7FF0
7FF0
0300
0300
0300
0300
0300
0300
0300
0300
0300
0300
0300
ENDCHAR

STARTCHAR CODE198
ENCODING 198
SWIDTH 451 0
DWIDTH 12 0
BBX 12 24 0 -2
BITMAP
0300
0300
0300
0300
0300
0300
0300
0300
0300
0300
03F0
03F0
0300
03F0
0300
0300
0300
0300
0300
0300
0300
0300
0300
0300
ENDCHAR

STARTCHAR CODE199
ENCODING 199
SWIDTH 451 0
DWIDTH 12 0
BBX 12 24 0 -2
BITMAP
0580
0580
0580
0580
0580
0580
0580
0580
0580
0580
0580
05F0
05F0
0580
0580
0580
0580
0580
0580
0580
0580
0580
0580
0580
ENDCHAR

STARTCHAR CODE200
ENCODING 200
SWIDTH 451 0
DWIDTH 12 0
BBX 12 24 0 -2
BITMAP
0580
0580
0580
0580
0580
0580
0580
0580
0580
05F0
07F0
0600
07F0
0000
0000
0000
0000
0000
0000
0000
0000
0000
0000
0000
ENDCHAR

STARTCHAR CODE201
ENCODING 201
SWIDTH 451 0
DWIDTH 12 0
BBX 12 24 0 -2
BITMAP
0000
0000
0000
0000
0000
0000
0000
0000
0000
0000
0000
07F0
07F0
0600
05F0
0580
0580
0580
0580
0580
0580
0580
0580
0580
ENDCHAR

STARTCHAR CODE202
ENCODING 202
SWIDTH 451 0
DWIDTH 12 0
BBX 12 24 0 -2
BITMAP
0580
0580
0580
0580
0580
0580
0580
0580
0580
7DF0
7DF0
0200
7FF0
0000
0000
0000
0000
0000
0000
0000
0000
0000
0000
0000
ENDCHAR

STARTCHAR CODE203
ENCODING 203
SWIDTH 451 0
DWIDTH 12 0
BBX 12 24 0 -2
BITMAP
0000
0000
0000
0000
0000
0000
0000
0000
0000
0000
0000
7FF0
7FF0
0000
7DF0
0580
0580
0580
0580
0580
0580
0580
0580
0580
ENDCHAR

STARTCHAR CODE204
ENCODING 204
SWIDTH 451 0
DWIDTH 12 0
BBX 12 24 0 -2
BITMAP
0580
0580
0580
0580
0580
0580
0580
0580
0580
0580
05F0
07F0
0600
05F0
0580
0580
0580
0580
0580
0580
0580
0580
0580
0580
ENDCHAR

STARTCHAR CODE205
ENCODING 205
SWIDTH 451 0
DWIDTH 12 0
BBX 12 24 0 -2
BITMAP
0000
0000
0000
0000
0000
0000
0000
0000
0000
0000
7FF0
7FF0
0000
7FF0
0000
0000
0000
0000
0000
0000
0000
0000
0000
0000
ENDCHAR

STARTCHAR CODE206
ENCODING 206
SWIDTH 451 0
DWIDTH 12 0
BBX 12 24 0 -2
BITMAP
0580
0580
0580
0580
0580
0580
0580
0580
0580
0580
7DF0
7DF0
0000
7DF0
0580
0580
0580
0580
0580
0580
0580
0580
0580
0580
ENDCHAR

STARTCHAR CODE207
ENCODING 207
SWIDTH 451 0
DWIDTH 12 0
BBX 12 24 0 -2
BITMAP
0300
0300
0300
0300
0300
0300
0300
0300
0300
0300
7FF0
7FF0
0000
7FF0
0000
0000
0000
0000
0000
0000
0000
0000
0000
0000
ENDCHAR

STARTCHAR CODE208
ENCODING 208
SWIDTH 451 0
DWIDTH 12 0
BBX 12 24 0 -2
BITMAP
0580
0580
0580
0580
0580
0580
0580
0580
0580
0580
0580
7FF0
7FF0
0000
0000
0000
0000
0000
0000
0000
0000
0000
0000
0000
ENDCHAR

STARTCHAR CODE209
ENCODING 209
SWIDTH 451 0
DWIDTH 12 0
BBX 12 24 0 -2
BITMAP
0000
0000
0000
0000
0000
0000
0000
0000
0000
0000
7FF0
7FF0
0000
7FF0
0300
0300
0300
0300
0300
0300
0300
0300
0300
0300
ENDCHAR

STARTCHAR CODE210
ENCODING 210
SWIDTH 451 0
DWIDTH 12 0
BBX 12 24 0 -2
BITMAP
0000
0000
0000
0000
0000
0000
0000
0000
0000
0000
0000
7FF0
7FF0
0580
0580
0580
0580
0580
0580
0580
0580
0580
0580
0580
ENDCHAR

STARTCHAR CODE211
ENCODING 211
SWIDTH 451 0
DWIDTH 12 0
BBX 12 24 0 -2
BITMAP
0580
0580
0580
0580
0580
0580
0580
0580
0580
0580
0580
07F0
07F0
0000
0000
0000
0000
0000
0000
0000
0000
0000
0000
0000
ENDCHAR

STARTCHAR CODE212
ENCODING 212
SWIDTH 451 0
DWIDTH 12 0
BBX 12 24 0 -2
BITMAP
0300
0300
0300
0300
0300
0300
0300
0300
0300
03F0
03F0
0300
03F0
0000
0000
0000
0000
0000
0000
0000
0000
0000
0000
0000
ENDCHAR

STARTCHAR CODE213
ENCODING 213
SWIDTH 451 0
DWIDTH 12 0
BBX 12 24 0 -2
BITMAP
0000
0000
0000
0000
0000
0000
0000
0000
0000
0000
03F0
03F0
0300
03F0
0300
0300
0300
0300
0300
0300
0300
0300
0300
0300
ENDCHAR

STARTCHAR CODE214
ENCODING 214
SWIDTH 451 0
DWIDTH 12 0
BBX 12 24 0 -2
BITMAP
0000
0000
0000
0000
0000
0000
0000
0000
0000
0000
0000
07F0
07F0
0580
0580
0580
0580
0580
0580
0580
0580
0580
0580
0580
ENDCHAR

STARTCHAR CODE215
ENCODING 215
SWIDTH 451 0
DWIDTH 12 0
BBX 12 24 0 -2
BITMAP
0580
0580
0580
0580
0580
0580
0580
0580
0580
0580
0580
7FF0
7FF0
0580
0580
0580
0580
0580
0580
0580
0580
0580
0580
0580
ENDCHAR

STARTCHAR CODE216
ENCODING 216
SWIDTH 451 0
DWIDTH 12 0
BBX 12 24 0 -2
BITMAP
0300
0300
0300
0300
0300
0300
0300
0300
0300
0300
7FF0
7FF0
0300
7FF0
0300
0300
0300
0300
0300
0300
0300
0300
0300
0300
ENDCHAR

STARTCHAR CODE217
ENCODING 217
SWIDTH 451 0
DWIDTH 12 0
BBX 12 24 0 -2
BITMAP
0300
0300
0300
0300
0300
0300
0300
0300
0300
0300
0300
7F00
7F00
0000
0000
0000
0000
0000
0000
0000
0000
0000
0000
0000
ENDCHAR

STARTCHAR CODE218
ENCODING 218
SWIDTH 451 0
DWIDTH 12 0
BBX 12 24 0 -2
BITMAP
0000
0000
0000
0000
0000
0000
0000
0000
0000
0000
0000
03F0
03F0
0300
0300
0300
0300
0300
0300
0300
0300
0300
0300
0300
ENDCHAR

STARTCHAR CODE219
ENCODING 219
SWIDTH 451 0
DWIDTH 12 0
BBX 12 24 0 -2
BITMAP
FFF0
FFF0
FFF0
FFF0
FFF0
FFF0
FFF0
FFF0
FFF0
FFF0
FFF0
FFF0
FFF0
FFF0
FFF0
FFF0
FFF0
FFF0
FFF0
FFF0
FFF0
FFF0
FFF0
FFF0
ENDCHAR

STARTCHAR CODE220
ENCODING 220
SWIDTH 451 0
DWIDTH 12 0
BBX 12 24 0 -2
BITMAP
0000
0000
0000
0000
0000
0000
0000
0000
0000
0000
0000
FFF0
FFF0
FFF0
FFF0
FFF0
FFF0
FFF0
FFF0
FFF0
FFF0
FFF0
FFF0
FFF0
ENDCHAR

STARTCHAR CODE221
ENCODING 221
SWIDTH 451 0
DWIDTH 12 0
BBX 12 24 0 -2
BITMAP
FE00
FE00
FE00
FE00
FE00
FE00
FE00
FE00
FE00
FE00
FE00
FE00
FE00
FE00
FE00
FE00
FE00
FE00
FE00
FE00
FE00
FE00
FE00
FE00
ENDCHAR

STARTCHAR CODE222
ENCODING 222
SWIDTH 451 0
DWIDTH 12 0
BBX 12 24 0 -2
BITMAP
03F0
03F0
03F0
03F0
03F0
03F0
03F0
03F0
03F0
03F0
03F0
03F0
03F0
03F0
03F0
03F0
03F0
03F0
03F0
03F0
03F0
03F0
03F0
03F0
ENDCHAR

STARTCHAR CODE223
ENCODING 223
SWIDTH 451 0
DWIDTH 12 0
BBX 12 24 0 -2
BITMAP
FFF0
FFF0
FFF0
FFF0
FFF0
FFF0
FFF0
FFF0
FFF0
FFF0
FFF0
FFF0
0000
0000
0000
0000
0000
0000
0000
0000
0000
0000
0000
0000
ENDCHAR

STARTCHAR CODE224
ENCODING 224
SWIDTH 451 0
DWIDTH 12 0
BBX 12 24 0 -2
BITMAP
0000
0000
0000
0000
0000
0000
0000
0000
0000
0000
0760
0F60
1DE0
19C0
3980
3380
3780
3DF0
1CF0
0000
0000
0000
0000
0000
ENDCHAR

STARTCHAR CODE225
ENCODING 225
SWIDTH 451 0
DWIDTH 12 0
BBX 12 24 0 -2
BITMAP
0000
0000
03C0
07E0
0E70
0C30
1C70
1860
19E0
1FC0
3F00
31C0
30E0
3060
3060
7060
60E0
79C0
5F80
6F00
6000
6000
0000
0000
ENDCHAR

STARTCHAR CODE226
ENCODING 226
SWIDTH 451 0
DWIDTH 12 0
BBX 12 24 0 -2
BITMAP
0000
0000
00F0
1FF0
1F80
0C00
0C00
1C00
1800
1800
3800
3000
3000
3000
3000
7000
6000
6000
6000
6000
6000
0000
0000
0000
ENDCHAR

STARTCHAR CODE227
ENCODING 227
SWIDTH 451 0
DWIDTH 12 0
BBX 12 24 0 -2
BITMAP
0000
0000
0000
0000
0000
0000
0000
0000
0000
0000
03F0
1FF0
1D80
0580
0580
0F80
0B00
1BE0
19E0
0000
0000
0000
0000
0000
ENDCHAR

STARTCHAR CODE228
ENCODING 228
SWIDTH 451 0
DWIDTH 12 0
BBX 12 24 0 -2
BITMAP
0000
00F0
0FF0
1F80
1800
0F00
0380
01C0
00E0
0060
03C0
0780
0E00
1C00
3800
3000
7FC0
6FC0
7800
0000
0000
0000
0000
0000
ENDCHAR

STARTCHAR CODE229
ENCODING 229
SWIDTH 451 0
DWIDTH 12 0
BBX 12 24 0 -2
BITMAP
0000
0000
0000
0000
0000
0000
01C0
03C0
0700
0E00
1F80
1BC0
38C0
30C0
30C0
30C0
31C0
3F80
1F00
0000
0000
0000
0000
0000
ENDCHAR

STARTCHAR CODE230
ENCODING 230
SWIDTH 451 0
DWIDTH 12 0
BBX 12 24 0 -2
BITMAP
0000
0000
0000
0000
0000
0000
0000
0000
0000
0000
1980
1980
1980
1B80
1B00
3B00
37C0
3EC0
2D80
7000
6000
6000
6000
0000
ENDCHAR

STARTCHAR CODE231
ENCODING 231
SWIDTH 451 0
DWIDTH 12 0
BBX 12 24 0 -2
BITMAP
0000
0000
0000
0000
0000
0000
0000
0000
0000
0000
01E0
1FE0
1F00
0300
0600
0600
0EC0
0DC0
0780
0000
0000
0000
0000
0000
ENDCHAR

STARTCHAR CODE232
ENCODING 232
SWIDTH 451 0
DWIDTH 12 0
BBX 12 24 0 -2
BITMAP
0000
0060
0F60
1FE0
1AE0
07F0
1DB0
19B0
3BB0
3330
3370
3760
7660
66E0
6EC0
6DC0
6D80
7F80
3B00
1E00
1800
1800
0000
0000
ENDCHAR

STARTCHAR CODE233
ENCODING 233
SWIDTH 451 0
DWIDTH 12 0
BBX 12 24 0 -2
BITMAP
0000
0000
0F80
1FE0
16E0
0E70
1C30
1830
3830
33F0
3FE0
3E60
7060
60E0
60C0
61C0
6180
7380
3F00
1E00
0000
0000
0000
0000
ENDCHAR

STARTCHAR CODE234
ENCODING 234
SWIDTH 451 0
DWIDTH 12 0
BBX 12 24 0 -2
BITMAP
0000
0000
0780
1FE0
3CF0
3030
7030
6010
6010
6010
6010
6010
6030
7030
3070
39E0
1BC0
1B00
FBE0
FBE0
0000
0000
0000
0000
ENDCHAR

STARTCHAR CODE235
ENCODING 235
SWIDTH 451 0
DWIDTH 12 0
BBX 12 24 0 -2
BITMAP
0000
0000
01E0
03F0
0730
0670
0760
0300
0380
1D80
3F80
3380
7180
6180
6180
6380
6300
7700
3E00
1C00
0000
0000
0000
0000
ENDCHAR

STARTCHAR CODE236
ENCODING 236
SWIDTH 451 0
DWIDTH 12 0
BBX 12 24 0 -2
BITMAP
0000
0000
0000
0000
0000
0000
1CE0
3DF0
35B0
7790
6310
6710
6730
6F70
7BE0
39C0
0000
0000
0000
0000
0000
0000
0000
0000
ENDCHAR

STARTCHAR CODE237
ENCODING 237
SWIDTH 451 0
DWIDTH 12 0
BBX 12 24 0 -2
BITMAP
0000
0000
0000
0000
0000
0000
0000
0000
00C0
06C0
0FC0
0D80
1FC0
1AC0
1580
1D80
0F80
1700
3800
3000
0000
0000
0000
0000
ENDCHAR

STARTCHAR CODE238
ENCODING 238
SWIDTH 451 0
DWIDTH 12 0
BBX 12 24 0 -2
BITMAP
0000
0000
0000
0000
0000
0000
0000
0000
0000
0000
0700
0F80
0D80
0E00
1E00
3800
3180
3380
3F00
1E00
0000
0000
0000
0000
ENDCHAR

STARTCHAR CODE239
ENCODING 239
SWIDTH 451 0
DWIDTH 12 0
BBX 12 24 0 -2
BITMAP
0000
0000
07C0
0FE0
0C70
1C30
1830
1810
1810
3810
3030
3030
3030
3070
3060
70E0
60C0
61C0
6180
6380
6300
0000
0000
0000
ENDCHAR

STARTCHAR CODE240
ENCODING 240
SWIDTH 451 0
DWIDTH 12 0
BBX 12 24 0 -2
BITMAP
0000
0000
0000
0000
0000
0000
0000
0000
0000
0000
0F80
3FE0
38E0
0700
3FE0
38E0
0700
3FE0
38E0
0000
0000
0000
0000
0000
ENDCHAR

STARTCHAR CODE241
ENCODING 241
SWIDTH 451 0
DWIDTH 12 0
BBX 12 24 0 -2
BITMAP
0000
0000
0000
0000
0000
0000
0000
0180
0180
0380
0F40
3FF0
3B70
0300
0300
0300
0CC0
3FF0
3870
0000
0000
0000
0000
0000
ENDCHAR

STARTCHAR CODE242
ENCODING 242
SWIDTH 451 0
DWIDTH 12 0
BBX 12 24 0 -2
BITMAP
0000
0000
0000
0000
0000
0000
0180
0180
01C0
00C0
00E0
0060
00E0
01C0
0380
0300
0CC0
3FF0
3870
0000
0000
0000
0000
0000
ENDCHAR

STARTCHAR CODE243
ENCODING 243
SWIDTH 451 0
DWIDTH 12 0
BBX 12 24 0 -2
BITMAP
0000
0000
0000
0000
0000
0000
0180
0380
0700
0E00
0C00
0E00
0600
0700
0300
0300
0CC0
3FF0
3870
0000
0000
0000
0000
0000
ENDCHAR

STARTCHAR CODE244
ENCODING 244
SWIDTH 451 0
DWIDTH 12 0
BBX 12 24 0 -2
BITMAP
0000
0000
0000
0700
0F00
0F00
0C00
0C00
0C00
0C00
0C00
0C00
0C00
0E00
0600
0600
0600
0600
0600
0600
0600
0600
0600
0000
ENDCHAR

STARTCHAR CODE245
ENCODING 245
SWIDTH 451 0
DWIDTH 12 0
BBX 12 24 0 -2
BITMAP
0600
0600
0600
0600
0600
0600
0600
0600
0600
0700
0300
0300
0300
0300
0300
0300
0F00
0F00
0E00
0000
0000
0000
0000
0000
ENDCHAR

STARTCHAR CODE246
ENCODING 246
SWIDTH 451 0
DWIDTH 12 0
BBX 12 24 0 -2
BITMAP
0000
0000
0000
0000
0000
0000
0700
0700
0700
0000
1F80
7FE0
70E0
0000
0E00
0E00
0E00
0000
0000
0000
0000
0000
0000
0000
ENDCHAR

STARTCHAR CODE247
ENCODING 247
SWIDTH 451 0
DWIDTH 12 0
BBX 12 24 0 -2
BITMAP
0000
0000
0000
0000
0000
0000
0000
0000
0000
1E60
3FE0
33C0
0C20
3FE0
33C0
0000
0000
0000
0000
0000
0000
0000
0000
0000
ENDCHAR

STARTCHAR CODE248
ENCODING 248
SWIDTH 451 0
DWIDTH 12 0
BBX 12 24 0 -2
BITMAP
1E00
3F00
7300
6300
6700
7E00
3C00
0000
0000
0000
0000
0000
0000
0000
0000
0000
0000
0000
0000
0000
0000
0000
0000
0000
ENDCHAR

STARTCHAR CODE249
ENCODING 249
SWIDTH 451 0
DWIDTH 12 0
BBX 12 24 0 -2
BITMAP
0000
0000
0000
0000
0000
0000
0000
0000
0000
0780
0FC0
1FC0
1FC0
1FC0
1F80
0F00
0000
0000
0000
0000
0000
0000
0000
0000
ENDCHAR

STARTCHAR CODE250
ENCODING 250
SWIDTH 451 0
DWIDTH 12 0
BBX 12 24 0 -2
BITMAP
0000
0000
0000
0000
0000
0000
0000
0000
0000
0700
0F80
0F80
0F80
0700
0000
0000
0000
0000
0000
0000
0000
0000
0000
0000
ENDCHAR

STARTCHAR CODE251
ENCODING 251
SWIDTH 451 0
DWIDTH 12 0
BBX 12 24 0 -2
BITMAP
03F0
0300
0300
0300
0300
0300
0300
0300
0300
0300
0700
0600
0600
0600
3600
7600
F600
B600
1600
1E00
0C00
0C00
0000
0000
ENDCHAR

STARTCHAR CODE252
ENCODING 252
SWIDTH 451 0
DWIDTH 12 0
BBX 12 24 0 -2
BITMAP
0000
05C0
07C0
0FC0
0B80
0D80
1D80
1980
1980
01C0
00C0
0000
0000
0000
0000
0000
0000
0000
0000
0000
0000
0000
0000
0000
ENDCHAR

STARTCHAR CODE253
ENCODING 253
SWIDTH 451 0
DWIDTH 12 0
BBX 12 24 0 -2
BITMAP
0000
0780
0FC0
0CC0
01C0
0380
0700
0E00
0DC0
0FC0
0000
0000
0000
0000
0000
0000
0000
0000
0000
0000
0000
0000
0000
0000
ENDCHAR

STARTCHAR CODE254
ENCODING 254
SWIDTH 451 0
DWIDTH 12 0
BBX 12 24 0 -2
BITMAP
0000
0000
0000
0000
1FC0
1FC0
1FC0
1FC0
1FC0
1FC0
1FC0
1FC0
1FC0
1FC0
1FC0
1FC0
1FC0
1FC0
1FC0
1FC0
0000
0000
0000
0000
ENDCHAR

STARTCHAR CODE255
ENCODING 255
SWIDTH 451 0
DWIDTH 12 0
BBX 12 24 0 -2
BITMAP
0000
0000
0000
0000
0000
0000
0000
0000
0000
0000
0000
0000
0000
0000
0000
0000
0000
0000
0000
0000
0000
0000
0000
0000
ENDCHAR
ENDFONT
